<svg id="Component_1_1" data-name="Component 1 – 1" xmlns="http://www.w3.org/2000/svg" width="928.917" height="974.119" viewBox="0 0 928.917 974.119">
  <g id="Polygon_4" data-name="Polygon 4" transform="translate(600.338 796.098) rotate(-129)" fill="none">
    <path d="M251.381,17.8a13,13,0,0,1,22.091,0L512.529,402.947A13,13,0,0,1,501.484,422.8H23.369a13,13,0,0,1-11.045-19.856Z" stroke="none"/>
    <path d="M 262.4267578125 12.65109252929688 C 260.4349975585938 12.65109252929688 258.4669494628906 13.14129638671875 256.7353210449219 14.0687255859375 C 254.8826904296875 15.06085205078125 253.3672485351563 16.49215698242188 252.2310180664063 18.32278442382813 L 13.1737060546875 403.4743041992188 C 10.84356689453125 407.2284240722656 10.73480224609375 411.7748413085938 12.88275146484375 415.6361083984375 C 15.03070068359375 419.4973449707031 18.95095825195313 421.8026123046875 23.36944580078125 421.8026123046875 L 501.4840087890625 421.8026123046875 C 505.9024963378906 421.8026123046875 509.82275390625 419.4973449707031 511.970703125 415.6361083984375 C 514.11865234375 411.77490234375 514.0098876953125 407.2284240722656 511.6797485351563 403.4743041992188 L 272.6224975585938 18.32278442382813 C 271.4862670898438 16.49215698242188 269.9707641601563 15.06085205078125 268.1181945800781 14.0687255859375 C 266.3865051269531 13.14129638671875 264.41845703125 12.65109252929688 262.4267578125 12.65109252929688 M 262.4267578125 11.65109252929688 C 266.67822265625 11.65109252929688 270.9296569824219 13.69918823242188 273.4721374511719 17.79541015625 L 512.5293579101563 402.9468994140625 C 517.9044799804688 411.6069030761719 511.6765747070313 422.8026123046875 501.4840087890625 422.8026123046875 L 23.36944580078125 422.8026123046875 C 13.17694091796875 422.8026123046875 6.948974609375 411.6069030761719 12.3240966796875 402.9468994140625 L 251.3813781738281 17.79541015625 C 253.9238586425781 13.69918823242188 258.17529296875 11.65109252929688 262.4267578125 11.65109252929688 Z" stroke="none" fill="#707070"/>
  </g>
  <g id="Polygon_5" data-name="Polygon 5" transform="matrix(0.921, -0.391, 0.391, 0.921, 248.2, 126.54)" fill="#98a2f8">
    <path d="M 300.1390380859375 253.3025360107422 L 23.71450424194336 253.3025360107422 C 21.3658504486084 253.3025360107422 19.09861946105957 252.6689605712891 17.15788841247559 251.4703063964844 C 15.32765769958496 250.3398895263672 13.80461883544922 248.7288055419922 12.75346565246582 246.8112640380859 C 11.70231151580811 244.8937683105469 11.16327285766602 242.7432708740234 11.1946964263916 240.5922698974609 C 11.22804260253906 238.3114624023438 11.91335010528564 236.0593109130859 13.17658042907715 234.0793151855469 L 151.3888092041016 17.44669342041016 C 152.57861328125 15.58180904388428 154.1512756347656 14.12407779693604 156.0630798339844 13.11396312713623 C 157.8511505126953 12.16927051544189 159.8787689208984 11.66992473602295 161.9267730712891 11.66992473602295 C 163.9747314453125 11.66992473602295 166.0023498535156 12.16927051544189 167.7904205322266 13.11396312713623 C 169.7022399902344 14.12407779693604 171.2748870849609 15.58180904388428 172.4646911621094 17.44669342041016 L 310.677001953125 234.0793151855469 C 311.9402465820313 236.0593109130859 312.6255493164063 238.3114624023438 312.6588745117188 240.5922698974609 C 312.6903076171875 242.7432250976563 312.1512756347656 244.8937377929688 311.1001281738281 246.8112640380859 C 310.0489501953125 248.7288055419922 308.5259399414063 250.3398895263672 306.6956481933594 251.4703063964844 C 304.7549743652344 252.6689605712891 302.4877014160156 253.3025360107422 300.1390380859375 253.3025360107422 Z" stroke="none"/>
    <path d="M 161.9267272949219 12.169921875 C 159.9598541259766 12.169921875 158.0130004882813 12.64923095703125 156.2966613769531 13.55604553222656 C 154.4623870849609 14.52516174316406 152.9529724121094 15.92462158203125 151.8103485107422 17.715576171875 L 13.59808349609375 234.3482360839844 C 12.384765625 236.2499694824219 11.72659301757813 238.41162109375 11.69461059570313 240.5995788574219 C 11.66445922851563 242.6642303466797 12.18218994140625 244.7290802001953 13.19186401367188 246.5709228515625 C 14.2015380859375 248.4127655029297 15.663818359375 249.9598541259766 17.42062377929688 251.0448913574219 C 19.28231811523438 252.1947631835938 21.458740234375 252.8025360107422 23.71450805664063 252.8025360107422 L 300.1390380859375 252.8025360107422 C 302.3948059082031 252.8025360107422 304.5711975097656 252.1947631835938 306.4328918457031 251.044921875 C 308.189697265625 249.9598541259766 309.6519775390625 248.4127655029297 310.6616516113281 246.5709228515625 C 311.6713256835938 244.7291107177734 312.1890869140625 242.6642303466797 312.158935546875 240.5995788574219 C 312.126953125 238.41162109375 311.46875 236.2499694824219 310.2554626464844 234.3482360839844 L 172.0431518554688 17.715576171875 C 170.9005432128906 15.92462158203125 169.39111328125 14.52516174316406 167.5568542480469 13.55604553222656 C 165.8404998779297 12.64923095703125 163.8936157226563 12.169921875 161.9267272949219 12.169921875 M 161.9267578125 11.169921875 C 166.1287994384766 11.169921875 170.3308563232422 13.17251586914063 172.8861999511719 17.177734375 L 311.0985107421875 233.8103942871094 C 316.6195678710938 242.4641571044922 310.4039916992188 253.8025360107422 300.1390380859375 253.8025360107422 L 23.71450805664063 253.8025360107422 C 13.44949340820313 253.8025360107422 7.233917236328125 242.4641571044922 12.75503540039063 233.8103942871094 L 150.9673156738281 17.177734375 C 153.5226593017578 13.17251586914063 157.7247009277344 11.169921875 161.9267578125 11.169921875 Z" stroke="none" fill="#707070"/>
  </g>
  <g id="Polygon_6" data-name="Polygon 6" transform="translate(0 670.686) rotate(-32)" fill="#98a2f8">
    <path d="M 430.2145385742188 357.3026123046875 L 23.63903617858887 357.3026123046875 C 21.29381370544434 357.3026123046875 19.0293140411377 356.6705932617188 17.09025764465332 355.4749755859375 C 15.26136875152588 354.3472595214844 13.73842430114746 352.7397155761719 12.68603515625 350.8260498046875 C 11.63364696502686 348.9124450683594 11.09175777435303 346.7653198242188 11.11898040771484 344.6168823242188 C 11.14781379699707 342.3390502929688 11.826979637146 340.0881958007813 13.08303546905518 338.1076965332031 L 216.3707580566406 17.57748794555664 C 217.5592041015625 15.70370960235596 219.1332550048828 14.23882102966309 221.0492095947266 13.22348785400391 C 222.8407592773438 12.27415370941162 224.8731536865234 11.77237606048584 226.9267578125 11.77237606048584 C 228.9803161621094 11.77237606048584 231.0127563476563 12.27415370941162 232.8042602539063 13.22348785400391 C 234.7202606201172 14.23882102966309 236.2943115234375 15.70370960235596 237.4827575683594 17.57748794555664 L 440.7705993652344 338.1076965332031 C 442.0266418457031 340.0881958007813 442.7057495117188 342.3390502929688 442.7345886230469 344.6168823242188 C 442.7618103027344 346.7653198242188 442.2199096679688 348.9124450683594 441.1675415039063 350.8260498046875 C 440.1151428222656 352.7397155761719 438.5921325683594 354.3472595214844 436.7633056640625 355.4749755859375 C 434.8242492675781 356.6705932617188 432.5597534179688 357.3026123046875 430.2145385742188 357.3026123046875 Z" stroke="none"/>
    <path d="M 226.9267578125 12.27236938476563 C 224.9544830322266 12.27236938476563 223.0030364990234 12.7540283203125 221.2833099365234 13.66531372070313 C 219.4450836181641 14.63943481445313 217.9343109130859 16.0457763671875 216.7930297851563 17.84530639648438 L 13.5052490234375 338.3755493164063 C 12.29885864257813 340.2776489257813 11.64654541015625 342.4381103515625 11.61886596679688 344.6231994628906 C 11.59280395507813 346.6854248046875 12.11331176757813 348.7470397949219 13.1241455078125 350.5850830078125 C 14.13497924804688 352.4232177734375 15.59713745117188 353.9669189453125 17.3526611328125 355.0493774414063 C 19.2127685546875 356.1963195800781 21.38653564453125 356.8026123046875 23.63897705078125 356.8026123046875 L 430.2145385742188 356.8026123046875 C 432.4669799804688 356.8026123046875 434.6407470703125 356.1963195800781 436.5008544921875 355.0493774414063 C 438.2563781738281 353.9669189453125 439.7185363769531 352.4232177734375 440.7293701171875 350.5850830078125 C 441.7402038574219 348.7470397949219 442.2607116699219 346.6854248046875 442.2346496582031 344.6231994628906 C 442.2069702148438 342.4381103515625 441.5546569824219 340.2776489257813 440.3482666015625 338.3755493164063 L 237.0604858398438 17.84530639648438 C 235.9192047119141 16.0457763671875 234.4084320068359 14.63943481445313 232.5701446533203 13.66531372070313 C 230.8504791259766 12.7540283203125 228.8989868164063 12.27236938476563 226.9267578125 12.27236938476563 M 226.9267425537109 11.27236938476563 C 231.1395111083984 11.27236938476563 235.3522796630859 13.28482055664063 237.9049835205078 17.30972290039063 L 441.1927490234375 337.8399353027344 C 446.6821594238281 346.4952087402344 440.4637451171875 357.8026123046875 430.2145385742188 357.8026123046875 L 23.63897705078125 357.8026123046875 C 13.3897705078125 357.8026123046875 7.171356201171875 346.4952087402344 12.6607666015625 337.8399353027344 L 215.9485321044922 17.30972290039063 C 218.5012054443359 13.28482055664063 222.7139587402344 11.27236938476563 226.9267425537109 11.27236938476563 Z" stroke="none" fill="#707070"/>
  </g>
</svg>
